<mxfile host="app.diagrams.net" agent="Mozilla/5.0 (Windows NT 10.0; Win64; x64) AppleWebKit/537.36 (KHTML, like Gecko) Chrome/131.0.0.0 Safari/537.36" version="25.0.3">
  <diagram name="Page-1" id="aR470M778KR6i1jtodCU">
    <mxGraphModel dx="2109" dy="686" grid="1" gridSize="10" guides="1" tooltips="1" connect="1" arrows="1" fold="1" page="1" pageScale="1" pageWidth="850" pageHeight="1100" math="0" shadow="0">
      <root>
        <mxCell id="0" />
        <mxCell id="1" parent="0" />
        <mxCell id="xD3-MJSI-Yava98rTtlR-2" value="" style="rounded=0;whiteSpace=wrap;html=1;" vertex="1" parent="1">
          <mxGeometry x="230" y="160" width="600" height="400" as="geometry" />
        </mxCell>
        <mxCell id="xD3-MJSI-Yava98rTtlR-3" value="" style="html=1;verticalLabelPosition=bottom;align=center;labelBackgroundColor=#ffffff;verticalAlign=top;strokeWidth=2;strokeColor=#0080F0;shadow=0;dashed=0;shape=mxgraph.ios7.icons.home;" vertex="1" parent="1">
          <mxGeometry x="250" y="170" width="24" height="25.5" as="geometry" />
        </mxCell>
        <mxCell id="xD3-MJSI-Yava98rTtlR-4" value="" style="sketch=0;pointerEvents=1;shadow=0;dashed=0;html=1;strokeColor=none;fillColor=#505050;labelPosition=center;verticalLabelPosition=bottom;verticalAlign=top;outlineConnect=0;align=center;shape=mxgraph.office.devices.modem;" vertex="1" parent="1">
          <mxGeometry x="184" y="290" width="90" height="80" as="geometry" />
        </mxCell>
        <mxCell id="xD3-MJSI-Yava98rTtlR-5" value="" style="endArrow=classic;html=1;rounded=0;" edge="1" parent="1" target="xD3-MJSI-Yava98rTtlR-4">
          <mxGeometry width="50" height="50" relative="1" as="geometry">
            <mxPoint x="-40" y="330" as="sourcePoint" />
            <mxPoint x="450" y="330" as="targetPoint" />
          </mxGeometry>
        </mxCell>
        <mxCell id="xD3-MJSI-Yava98rTtlR-6" value="&lt;b&gt;Airtel&lt;/b&gt;" style="text;html=1;align=center;verticalAlign=middle;resizable=0;points=[];autosize=1;strokeColor=none;fillColor=none;" vertex="1" parent="1">
          <mxGeometry x="60" y="340" width="50" height="30" as="geometry" />
        </mxCell>
        <mxCell id="xD3-MJSI-Yava98rTtlR-7" value="" style="sketch=0;aspect=fixed;pointerEvents=1;shadow=0;dashed=0;html=1;strokeColor=none;labelPosition=center;verticalLabelPosition=bottom;verticalAlign=top;align=center;fillColor=#00188D;shape=mxgraph.azure.laptop" vertex="1" parent="1">
          <mxGeometry x="375" y="210" width="100" height="60" as="geometry" />
        </mxCell>
        <mxCell id="xD3-MJSI-Yava98rTtlR-8" value="" style="sketch=0;aspect=fixed;pointerEvents=1;shadow=0;dashed=0;html=1;strokeColor=none;labelPosition=center;verticalLabelPosition=bottom;verticalAlign=top;align=center;fillColor=#00188D;shape=mxgraph.azure.laptop" vertex="1" parent="1">
          <mxGeometry x="530" y="210" width="100" height="60" as="geometry" />
        </mxCell>
        <mxCell id="xD3-MJSI-Yava98rTtlR-9" value="" style="sketch=0;aspect=fixed;pointerEvents=1;shadow=0;dashed=0;html=1;strokeColor=none;labelPosition=center;verticalLabelPosition=bottom;verticalAlign=top;align=center;fillColor=#00188D;shape=mxgraph.azure.laptop" vertex="1" parent="1">
          <mxGeometry x="610" y="300" width="100" height="60" as="geometry" />
        </mxCell>
        <mxCell id="xD3-MJSI-Yava98rTtlR-10" value="" style="html=1;verticalLabelPosition=bottom;align=center;labelBackgroundColor=#ffffff;verticalAlign=top;strokeWidth=2;strokeColor=#0080F0;shadow=0;dashed=0;shape=mxgraph.ios7.icons.smartphone;" vertex="1" parent="1">
          <mxGeometry x="390" y="380" width="70" height="120" as="geometry" />
        </mxCell>
        <mxCell id="xD3-MJSI-Yava98rTtlR-11" style="edgeStyle=orthogonalEdgeStyle;rounded=0;orthogonalLoop=1;jettySize=auto;html=1;entryX=0.004;entryY=0.441;entryDx=0;entryDy=0;entryPerimeter=0;" edge="1" parent="1" source="xD3-MJSI-Yava98rTtlR-4" target="xD3-MJSI-Yava98rTtlR-7">
          <mxGeometry relative="1" as="geometry" />
        </mxCell>
        <mxCell id="xD3-MJSI-Yava98rTtlR-12" style="edgeStyle=orthogonalEdgeStyle;rounded=0;orthogonalLoop=1;jettySize=auto;html=1;entryX=0.012;entryY=0.402;entryDx=0;entryDy=0;entryPerimeter=0;" edge="1" parent="1" source="xD3-MJSI-Yava98rTtlR-4" target="xD3-MJSI-Yava98rTtlR-10">
          <mxGeometry relative="1" as="geometry" />
        </mxCell>
        <mxCell id="xD3-MJSI-Yava98rTtlR-13" value="" style="outlineConnect=0;dashed=0;verticalLabelPosition=bottom;verticalAlign=top;align=center;html=1;shape=mxgraph.aws3.fire_tv;fillColor=#5294CF;gradientColor=none;" vertex="1" parent="1">
          <mxGeometry x="475" y="300" width="100" height="65.5" as="geometry" />
        </mxCell>
        <mxCell id="xD3-MJSI-Yava98rTtlR-14" style="edgeStyle=orthogonalEdgeStyle;rounded=0;orthogonalLoop=1;jettySize=auto;html=1;entryX=0;entryY=0.5;entryDx=0;entryDy=0;entryPerimeter=0;" edge="1" parent="1" source="xD3-MJSI-Yava98rTtlR-4" target="xD3-MJSI-Yava98rTtlR-13">
          <mxGeometry relative="1" as="geometry" />
        </mxCell>
        <mxCell id="xD3-MJSI-Yava98rTtlR-15" value="&lt;b&gt;Public IP&lt;/b&gt;" style="text;html=1;align=center;verticalAlign=middle;resizable=0;points=[];autosize=1;strokeColor=none;fillColor=none;" vertex="1" parent="1">
          <mxGeometry x="114" y="365.5" width="70" height="30" as="geometry" />
        </mxCell>
        <mxCell id="xD3-MJSI-Yava98rTtlR-16" value="&lt;b&gt;Private IP&lt;/b&gt;" style="text;html=1;align=center;verticalAlign=middle;resizable=0;points=[];autosize=1;strokeColor=none;fillColor=none;" vertex="1" parent="1">
          <mxGeometry x="240" y="390" width="80" height="30" as="geometry" />
        </mxCell>
        <mxCell id="xD3-MJSI-Yava98rTtlR-17" value="" style="html=1;verticalLabelPosition=bottom;align=center;labelBackgroundColor=#ffffff;verticalAlign=top;strokeWidth=2;strokeColor=#0080F0;shadow=0;dashed=0;shape=mxgraph.ios7.icons.smartphone;" vertex="1" parent="1">
          <mxGeometry x="24" y="780" width="156" height="260" as="geometry" />
        </mxCell>
        <mxCell id="xD3-MJSI-Yava98rTtlR-18" value="" style="html=1;strokeWidth=1;shadow=0;dashed=0;shape=mxgraph.ios7.misc.vpn;fillColor=#007AFF;strokeColor=none;buttonText=;strokeColor2=#222222;fontColor=#222222;fontSize=8;verticalLabelPosition=bottom;verticalAlign=top;align=center;sketch=0;" vertex="1" parent="1">
          <mxGeometry x="110" y="830" width="50" height="40" as="geometry" />
        </mxCell>
        <mxCell id="xD3-MJSI-Yava98rTtlR-19" value="" style="rounded=1;whiteSpace=wrap;html=1;" vertex="1" parent="1">
          <mxGeometry x="575" y="800" width="220" height="150" as="geometry" />
        </mxCell>
        <mxCell id="xD3-MJSI-Yava98rTtlR-20" value="&lt;b&gt;India&lt;/b&gt;" style="text;html=1;align=center;verticalAlign=middle;resizable=0;points=[];autosize=1;strokeColor=none;fillColor=none;" vertex="1" parent="1">
          <mxGeometry x="77" y="1050" width="50" height="30" as="geometry" />
        </mxCell>
        <mxCell id="xD3-MJSI-Yava98rTtlR-21" value="&lt;b&gt;US&lt;/b&gt;" style="text;html=1;align=center;verticalAlign=middle;resizable=0;points=[];autosize=1;strokeColor=none;fillColor=none;" vertex="1" parent="1">
          <mxGeometry x="665" y="960" width="40" height="30" as="geometry" />
        </mxCell>
        <mxCell id="xD3-MJSI-Yava98rTtlR-22" value="&lt;b&gt;Content&lt;/b&gt;" style="ellipse;whiteSpace=wrap;html=1;" vertex="1" parent="1">
          <mxGeometry x="705" y="825" width="80" height="50" as="geometry" />
        </mxCell>
        <mxCell id="xD3-MJSI-Yava98rTtlR-24" value="" style="edgeStyle=orthogonalEdgeStyle;rounded=0;orthogonalLoop=1;jettySize=auto;html=1;entryX=0;entryY=0.5;entryDx=0;entryDy=0;" edge="1" parent="1" source="xD3-MJSI-Yava98rTtlR-18" target="xD3-MJSI-Yava98rTtlR-22">
          <mxGeometry relative="1" as="geometry">
            <mxPoint x="240" y="850" as="targetPoint" />
          </mxGeometry>
        </mxCell>
        <mxCell id="xD3-MJSI-Yava98rTtlR-28" style="edgeStyle=orthogonalEdgeStyle;rounded=0;orthogonalLoop=1;jettySize=auto;html=1;entryX=0;entryY=0.5;entryDx=0;entryDy=0;" edge="1" parent="1" source="xD3-MJSI-Yava98rTtlR-25" target="xD3-MJSI-Yava98rTtlR-26">
          <mxGeometry relative="1" as="geometry" />
        </mxCell>
        <mxCell id="xD3-MJSI-Yava98rTtlR-25" value="" style="html=1;verticalLabelPosition=bottom;align=center;labelBackgroundColor=#ffffff;verticalAlign=top;strokeWidth=2;strokeColor=#0080F0;shadow=0;dashed=0;shape=mxgraph.ios7.icons.smartphone;" vertex="1" parent="1">
          <mxGeometry x="50" y="1140" width="156" height="260" as="geometry" />
        </mxCell>
        <mxCell id="xD3-MJSI-Yava98rTtlR-26" value="" style="rounded=1;whiteSpace=wrap;html=1;fillColor=#d5e8d4;gradientColor=#97d077;strokeColor=#82b366;" vertex="1" parent="1">
          <mxGeometry x="590" y="1160" width="320" height="220" as="geometry" />
        </mxCell>
        <mxCell id="xD3-MJSI-Yava98rTtlR-27" value="&lt;b&gt;facebook.com&lt;/b&gt;" style="text;html=1;align=center;verticalAlign=middle;resizable=0;points=[];autosize=1;strokeColor=none;fillColor=none;" vertex="1" parent="1">
          <mxGeometry x="700" y="1160" width="100" height="30" as="geometry" />
        </mxCell>
        <mxCell id="xD3-MJSI-Yava98rTtlR-32" style="edgeStyle=orthogonalEdgeStyle;rounded=0;orthogonalLoop=1;jettySize=auto;html=1;" edge="1" parent="1" source="xD3-MJSI-Yava98rTtlR-29" target="xD3-MJSI-Yava98rTtlR-31">
          <mxGeometry relative="1" as="geometry" />
        </mxCell>
        <mxCell id="xD3-MJSI-Yava98rTtlR-29" value="&lt;b&gt;Reverse Proxy&lt;/b&gt;&lt;div&gt;&lt;b&gt;or&lt;/b&gt;&lt;/div&gt;&lt;div&gt;&lt;b&gt;Web Server&lt;/b&gt;&lt;/div&gt;" style="rounded=0;whiteSpace=wrap;html=1;fillColor=#dae8fc;gradientColor=#7ea6e0;strokeColor=#6c8ebf;" vertex="1" parent="1">
          <mxGeometry x="615" y="1245" width="90" height="50" as="geometry" />
        </mxCell>
        <mxCell id="xD3-MJSI-Yava98rTtlR-31" value="&lt;b&gt;FB app&lt;/b&gt;" style="rounded=1;whiteSpace=wrap;html=1;fillColor=#f8cecc;gradientColor=#ea6b66;strokeColor=#b85450;" vertex="1" parent="1">
          <mxGeometry x="780" y="1240" width="120" height="60" as="geometry" />
        </mxCell>
        <mxCell id="xD3-MJSI-Yava98rTtlR-35" style="edgeStyle=orthogonalEdgeStyle;rounded=0;orthogonalLoop=1;jettySize=auto;html=1;entryX=0;entryY=0.5;entryDx=0;entryDy=0;" edge="1" parent="1" source="xD3-MJSI-Yava98rTtlR-33" target="xD3-MJSI-Yava98rTtlR-34">
          <mxGeometry relative="1" as="geometry" />
        </mxCell>
        <mxCell id="xD3-MJSI-Yava98rTtlR-33" value="" style="sketch=0;aspect=fixed;pointerEvents=1;shadow=0;dashed=0;html=1;strokeColor=none;labelPosition=center;verticalLabelPosition=bottom;verticalAlign=top;align=center;fillColor=#00188D;shape=mxgraph.azure.laptop" vertex="1" parent="1">
          <mxGeometry x="-90" y="1565" width="283.33" height="170" as="geometry" />
        </mxCell>
        <mxCell id="xD3-MJSI-Yava98rTtlR-34" value="&lt;b&gt;ISP Server&lt;/b&gt;" style="ellipse;whiteSpace=wrap;html=1;aspect=fixed;" vertex="1" parent="1">
          <mxGeometry x="410" y="1590" width="120" height="120" as="geometry" />
        </mxCell>
        <mxCell id="xD3-MJSI-Yava98rTtlR-36" value="" style="whiteSpace=wrap;html=1;shape=mxgraph.basic.cloud_callout" vertex="1" parent="1">
          <mxGeometry x="625" y="1530" width="160" height="120" as="geometry" />
        </mxCell>
        <mxCell id="xD3-MJSI-Yava98rTtlR-37" style="edgeStyle=orthogonalEdgeStyle;rounded=0;orthogonalLoop=1;jettySize=auto;html=1;entryX=0.019;entryY=0.47;entryDx=0;entryDy=0;entryPerimeter=0;" edge="1" parent="1" source="xD3-MJSI-Yava98rTtlR-34" target="xD3-MJSI-Yava98rTtlR-36">
          <mxGeometry relative="1" as="geometry" />
        </mxCell>
      </root>
    </mxGraphModel>
  </diagram>
</mxfile>
